<?xml version="1.0" standalone="no"?>
<!DOCTYPE svg PUBLIC "-//W3C//DTD SVG 20010904//EN"
 "http://www.w3.org/TR/2001/REC-SVG-20010904/DTD/svg10.dtd">
<svg version="1.0" xmlns="http://www.w3.org/2000/svg"
 width="700.000000pt" height="700.000000pt" viewBox="0 0 700.000000 700.000000"
 preserveAspectRatio="xMidYMid meet">
<metadata>
Created by potrace 1.14, written by Peter Selinger 2001-2017
</metadata>
<g transform="translate(0.000000,700.000000) scale(0.100000,-0.100000)"
fill="#000000" stroke="none">
<path d="M3155 6409 c-91 -9 -163 -17 -200 -24 -16 -3 -46 -8 -65 -11 -73 -13
-86 -15 -125 -26 -22 -5 -47 -12 -55 -13 -170 -37 -488 -169 -658 -274 -505
-311 -885 -812 -1145 -1511 -121 -325 -247 -859 -282 -1195 -3 -27 -7 -66 -10
-85 -21 -159 -24 -469 -6 -660 50 -524 237 -938 581 -1280 105 -106 291 -257
358 -291 15 -8 29 -17 32 -21 7 -8 279 -147 336 -171 143 -60 396 -137 544
-166 30 -6 66 -13 80 -16 14 -3 54 -10 90 -16 36 -5 76 -12 90 -14 14 -2 50
-7 80 -10 30 -3 74 -8 98 -10 222 -25 697 -19 862 10 8 1 40 6 70 10 30 4 82
13 115 20 33 8 77 16 99 19 21 4 42 8 46 11 3 2 20 7 37 10 113 19 434 140
613 230 150 75 427 252 506 323 11 9 46 40 79 67 79 66 248 235 310 310 28 33
58 68 67 78 36 41 158 218 218 317 57 94 198 372 204 403 2 7 9 26 15 42 21
50 80 232 101 313 30 113 65 302 75 402 3 30 8 78 10 105 6 54 7 394 1 435 -2
14 -7 57 -10 95 -6 60 -21 157 -42 270 -15 84 -83 321 -120 419 -79 211 -234
508 -340 655 -238 329 -522 598 -838 795 -112 71 -312 174 -426 221 -249 104
-575 191 -815 219 -27 4 -70 9 -95 12 -67 9 -405 11 -485 3z"/>
</g>
</svg>
