<?xml version="1.0" encoding="utf-8"?>
<!-- Generator: Adobe Illustrator 27.7.0, SVG Export Plug-In . SVG Version: 6.00 Build 0)  -->
<svg version="1.1" id="Ebene_1" xmlns="http://www.w3.org/2000/svg" xmlns:xlink="http://www.w3.org/1999/xlink" x="0px" y="0px"
	 viewBox="0 0 800 800" style="enable-background:new 0 0 800 800;" xml:space="preserve">
<style type="text/css">
	.st0{fill:#D3D3D3;}
	
		.st1{opacity:0.6;fill:none;stroke:#000000;stroke-width:33.3333;stroke-linecap:round;stroke-linejoin:round;stroke-miterlimit:111.1111;enable-background:new    ;}
	.st2{fill:none;stroke:#000000;stroke-width:60;stroke-linecap:round;stroke-linejoin:round;stroke-miterlimit:111.1111;}
</style>
<g id="SVGRepo_bgCarrier">
	<path class="st0" d="M400,741.5c59.7-0.8,132.5-1.3,169.2-48.3c39.1-50.2-5.8-126.8,14.4-187.1c14.5-43.4,72.6-61.6,83.5-106
		c11.6-47.1-5.4-95.9-22.8-141.1c-19.6-50.7-44.1-99.7-84.3-136.2c-45.6-41.5-98.9-93.3-160.1-86c-62.3,7.5-100.1,72.9-139.3,122
		c-29.6,37-28.4,90.7-59.4,126.6c-41.5,48.1-126,55-148.6,114.6c-21.9,58,6,125.5,37.5,178.9c31.4,53.2,83.4,90,138.1,118.6
		C281.5,725.5,339.9,742.2,400,741.5"/>
</g>
<g id="SVGRepo_tracerCarrier">
</g>
<path class="st1" d="M511.1,177.8H233.3c-30.7,0-55.6,24.9-55.6,55.6v333.3c0,30.7,24.9,55.6,55.6,55.6h333.3
	c30.7,0,55.6-24.9,55.6-55.6V400"/>
<polyline class="st2" points="629.7,217.4 379.7,467.4 296.3,384.1 "/>
</svg>
