<svg viewBox="-40 -40 480.00 480.00" fill="none" xmlns="http://www.w3.org/2000/svg"><g id="SVGRepo_bgCarrier" stroke-width="0"><path transform="translate(-40, -40), scale(15)" d="M16,29.24755495467356C19.98871249846688,29.07018806434988,23.691149871885692,27.24008749375836,26.153079313376484,24.09681056763018C28.58746781339689,20.98869663374246,29.497877373118055,16.968684896875867,28.634648377422067,13.116223956639317C27.767032344795712,9.244184331601991,25.23910883393995,5.959143466145615,21.69089201003091,4.182740975588267C18.072286968484203,2.3710988671262596,13.783946265008531,2.071951426508181,10.156091091417437,3.864998111708612C6.569697145521805,5.637552822084674,4.543283297463127,9.28351616810981,3.5367187047147794,13.15533737486233C2.4823094522927978,17.211196416135177,2.081746450079105,21.73990097980223,4.647783009901344,25.053090954422373C7.246633876282749,28.408649784271716,11.759923124503413,29.43609931590021,16,29.24755495467356" fill="#ffd84d" strokewidth="0"></path></g><g id="SVGRepo_tracerCarrier" stroke-linecap="round" stroke-linejoin="round"></g><g id="SVGRepo_iconCarrier"> <path d="M55 196.076C213.97 162.425 328.5 179.5 344.217 163.629C356.262 151.465 347.5 115.501 340.587 111.591C332.881 107.232 302.935 102.413 281 101.629M266.5 75.5C232.987 143.859 249.995 254.767 246.007 323" stroke="#000000" stroke-opacity="0.9" stroke-width="16" stroke-linecap="round" stroke-linejoin="round"></path> <path d="M49 150.74C61.5 214.941 69 259.146 69 323.347" stroke="#000000" stroke-opacity="0.9" stroke-width="16" stroke-linecap="round" stroke-linejoin="round"></path> <path d="M69 323C113.955 213.209 226.212 186.011 244 321.792" stroke="#000000" stroke-opacity="0.9" stroke-width="16" stroke-linecap="round" stroke-linejoin="round"></path> </g></svg>