<?xml version="1.0" encoding="utf-8"?>
<!-- Generator: Adobe Illustrator 27.7.0, SVG Export Plug-In . SVG Version: 6.00 Build 0)  -->
<svg version="1.1" id="Ebene_1" xmlns="http://www.w3.org/2000/svg" xmlns:xlink="http://www.w3.org/1999/xlink" x="0px" y="0px"
	 viewBox="0 0 24 24" style="enable-background:new 0 0 24 24;" xml:space="preserve">
<style type="text/css">
	.st0{opacity:0.3;}
	.st1{fill:#EA6C6C;}
	.st2{fill:none;stroke:#000000;stroke-width:0.96;stroke-linecap:round;stroke-linejoin:round;}
</style>
<g id="SVGRepo_bgCarrier" class="st0">
	<path class="st1" d="M12,19.3c1.8-0.3,3.7-0.1,5.4-0.9c2.4-1.1,5.7-1.8,6.3-4.3c0.7-2.5-1.6-4.9-3.5-6.8c-1.5-1.5-3.5-2.2-5.6-2.5
		c-1.7-0.3-3.4,0.3-5,0.9C8.1,6.2,6.8,7.1,5.6,8.3c-1.8,1.7-4.4,3.1-4.5,5.6C1,16.5,2.7,19.2,5,20.3C7.2,21.4,9.6,19.6,12,19.3"/>
</g>
<g id="SVGRepo_tracerCarrier">
</g>
<g id="SVGRepo_iconCarrier">
	<path class="st2" d="M10,12v5"/>
	<path class="st2" d="M14,12v5"/>
	<path class="st2" d="M4,7h16"/>
	<path class="st2" d="M6,10v8c0,1.7,1.3,3,3,3h6c1.7,0,3-1.3,3-3v-8"/>
	<path class="st2" d="M9,5c0-1.1,0.9-2,2-2h2c1.1,0,2,0.9,2,2v2H9V5z"/>
</g>
</svg>
