<svg width="64px" height="64px" viewBox="-32.64 -32.64 257.28 257.28" xmlns="http://www.w3.org/2000/svg" fill="#000000"><g id="SVGRepo_bgCarrier" stroke-width="0" transform="translate(0,0), scale(1)"><rect x="-32.64" y="-32.64" width="257.28" height="257.28" rx="20.582399999999996" fill="#ee7c7c" strokewidth="0"></rect></g><g id="SVGRepo_tracerCarrier" stroke-linecap="round" stroke-linejoin="round"></g><g id="SVGRepo_iconCarrier"><path fill="none" stroke="#ffffff" stroke-width="7.103999999999999" d="M54 170h92c8.84 0 16-7.16 16-16V70c0-8.84-7.16-16-16-16h-16"></path><path fill="none" stroke="#ffffff" stroke-width="7.103999999999999" d="M46 22h68a16 16 0 0 1 16 16v116a16 16 0 0 1-16 16H46a16 16 0 0 1-16-16V38a16 16 0 0 1 16-16z"></path><path fill="none" stroke="#ffffff" stroke-linecap="round" stroke-width="7.103999999999999" d="m60 76 40 40m0-40-40 40"></path></g></svg>